<svg width="22" height="22" viewBox="0 0 22 22" fill="none" xmlns="http://www.w3.org/2000/svg">
<path d="M15.02 16.61C13.2115 18.0137 10.9361 18.6755 8.65688 18.4606C6.37768 18.2458 4.266 17.1705 2.7517 15.4536C1.2374 13.7366 0.434296 11.5072 0.505869 9.21898C0.577441 6.93079 1.51831 4.75588 3.13695 3.13695C4.75588 1.51831 6.93079 0.577441 9.21898 0.505869C11.5072 0.434296 13.7366 1.2374 15.4536 2.7517C17.1705 4.266 18.2458 6.37768 18.4606 8.65688C18.6755 10.9361 18.0137 13.2115 16.61 15.02L21.17 19.58C21.318 19.7175 21.4263 19.8924 21.4833 20.0862C21.5403 20.2801 21.544 20.4858 21.494 20.6816C21.4439 20.8773 21.342 21.056 21.1989 21.1987C21.0558 21.3414 20.8769 21.4429 20.681 21.4925C20.4854 21.5424 20.28 21.5388 20.0863 21.4821C19.8925 21.4254 19.7177 21.3175 19.58 21.17L15.02 16.61ZM16.25 9.49995C16.2633 8.60536 16.0986 7.71704 15.7655 6.88668C15.4324 6.05631 14.9375 5.30048 14.3096 4.66314C13.6816 4.02579 12.9333 3.51967 12.108 3.17421C11.2827 2.82875 10.3969 2.65084 9.5022 2.65084C8.60751 2.65084 7.72175 2.82875 6.89644 3.17421C6.07114 3.51967 5.32276 4.02579 4.69485 4.66314C4.06694 5.30048 3.57203 6.05631 3.23891 6.88668C2.90579 7.71704 2.74111 8.60536 2.75445 9.49995C2.78087 11.2721 3.50342 12.9628 4.766 14.2067C6.02857 15.4506 7.72981 16.1478 9.5022 16.1478C11.2746 16.1478 12.9758 15.4506 14.2384 14.2067C15.501 12.9628 16.2235 11.2721 16.25 9.49995Z" fill="#CBC9CF"/>
</svg>
