<svg width="16" height="16" viewBox="0 0 16 16" fill="none" xmlns="http://www.w3.org/2000/svg">
<g id="file-check-02">
<path id="Icon" d="M13.3327 8.33301V4.53301C13.3327 3.4129 13.3327 2.85285 13.1147 2.42503C12.9229 2.0487 12.617 1.74274 12.2407 1.55099C11.8128 1.33301 11.2528 1.33301 10.1327 1.33301H5.86602C4.74591 1.33301 4.18586 1.33301 3.75803 1.55099C3.38171 1.74274 3.07575 2.0487 2.884 2.42503C2.66602 2.85285 2.66602 3.4129 2.66602 4.53301V11.4663C2.66602 12.5864 2.66602 13.1465 2.884 13.5743C3.07575 13.9506 3.38171 14.2566 3.75803 14.4484C4.18586 14.6663 4.74591 14.6663 5.86602 14.6663H7.99935M9.33268 7.33301H5.33268M6.66602 9.99967H5.33268M10.666 4.66634H5.33268M9.66602 12.6663L10.9993 13.9997L13.9993 10.9997" stroke="black" stroke-width="1.2" stroke-linecap="round" stroke-linejoin="round"/>
</g>
</svg>
