<svg width="20" height="20" viewBox="0 0 20 20" fill="none" xmlns="http://www.w3.org/2000/svg">
<g id="check-circle-broken" clip-path="url(#clip0_337_3600)">
<path id="Icon" d="M18.3327 9.23843V10.0051C18.3317 11.8021 17.7498 13.5507 16.6738 14.99C15.5978 16.4292 14.0854 17.4822 12.3621 17.9917C10.6389 18.5012 8.79707 18.44 7.11141 17.8172C5.42575 17.1945 3.98656 16.0435 3.00848 14.536C2.0304 13.0285 1.56584 11.2451 1.68408 9.45202C1.80232 7.6589 2.49702 5.95203 3.66458 4.58599C4.83214 3.21994 6.41 2.26791 8.16284 1.87188C9.91568 1.47585 11.7496 1.65704 13.391 2.38843M18.3327 3.33366L9.99935 11.6753L7.49935 9.17533" stroke="white" stroke-width="2" stroke-linecap="round" stroke-linejoin="round"/>
</g>
<defs>
<clipPath id="clip0_337_3600">
<rect width="20" height="20" fill="white"/>
</clipPath>
</defs>
</svg>
