<svg width="258" height="102" viewBox="0 0 258 102" fill="none" xmlns="http://www.w3.org/2000/svg">
<path d="M0.84 49.673H35.94V78.923H0.84V49.673ZM40.6017 21.71V2.99H72.7767V24.05L40.6017 21.71ZM40.6017 79.04V26.39H72.7767V79.04H40.6017ZM77.507 79.04V2.99H109.682V79.04H77.507ZM110.852 8.489C116.819 4.043 127.466 0.649999 135.656 0.649999C152.387 0.649999 158.822 8.957 158.822 28.964V79.04H126.647V36.101C126.647 32.123 125.594 30.836 122.435 30.836C120.329 30.836 117.755 31.772 113.192 34.229L110.852 8.489ZM224.968 2.99H257.143V59.15C257.143 88.517 244.156 101.27 214.321 101.27C197.356 101.27 182.263 99.047 172.084 94.601L175.594 70.616C186.475 74.243 193.729 75.53 204.025 75.53C217.246 75.53 224.968 71.786 224.968 65.468V62.543C219.469 67.808 210.577 70.616 199.462 70.616C177.232 70.616 162.373 56.225 162.373 34.814C162.373 13.403 176.998 0.649999 201.802 0.649999C210.109 0.649999 214.321 1.118 223.798 2.873L220.288 25.337H213.619C201.919 25.337 195.133 28.847 195.133 34.931C195.133 40.196 200.398 43.121 209.992 43.121C220.171 43.121 224.968 38.792 224.968 29.315V2.99Z" fill="#356EFF"/>
</svg>
