<svg width="120" height="74" viewBox="0 0 120 74" fill="none" xmlns="http://www.w3.org/2000/svg">
<g id="Layer_1" clip-path="url(#clip0_140_2449)">
<path id="Vector" d="M0 0.924316H23.2723V7.68633H15.2059V31.5078H7.86041V7.68633H0V0.924316Z" fill="black"/>
<path id="Vector_2" d="M36.865 8.61328V15.4096H36.2128C35.3547 15.4096 34.4966 15.5469 33.6728 15.7872C32.8147 16.0275 32.0252 16.405 31.27 16.9542V31.508H23.9245V8.81923H31.27V10.4668C32.0252 9.8833 32.746 9.4714 33.5012 9.1968C34.2563 8.92221 35.1144 8.71626 36.1099 8.61328H36.865Z" fill="black"/>
<path id="Vector_3" d="M54.9199 31.4738V29.483C54.2334 30.2038 53.3753 30.753 52.3455 31.1649C51.3158 31.5768 50.2174 31.7484 49.016 31.7484C47.5057 31.7484 46.0984 31.5082 44.7597 31.0619C43.4554 30.5814 42.2883 29.8949 41.2929 28.9338C40.3318 27.9727 39.5767 26.7713 39.0618 25.2953C38.5126 23.8194 38.2723 22.0688 38.341 20.0436C38.4096 18.0528 38.7185 16.3022 39.3364 14.7919C39.9542 13.2816 40.778 12.0802 41.7735 11.1191C42.7689 10.158 43.9016 9.43722 45.206 8.991C46.5103 8.54477 47.849 8.33882 49.2563 8.40747C50.4234 8.47612 51.5217 8.75072 52.4828 9.23127C53.4439 9.71182 54.2334 10.261 54.8856 10.9132V8.8537H62.0252V31.5082H54.8856L54.9199 31.4738ZM49.9085 25.467C51.1098 25.467 52.1396 25.158 53.032 24.5745C53.9245 23.991 54.4394 23.0642 54.714 21.7942C54.714 21.7256 54.714 21.5196 54.7483 21.245C54.7483 20.9704 54.7826 20.7645 54.7826 20.6958C54.7826 18.7736 54.3364 17.2976 53.4096 16.2336C52.5172 15.2038 51.3844 14.6546 50.0801 14.6546C48.9474 14.586 47.9176 15.0322 46.9565 15.9246C45.9954 16.8171 45.5149 18.1901 45.5149 20.0093C45.5149 21.8285 45.9268 23.1672 46.7849 24.094C47.643 25.0207 48.6728 25.467 49.9428 25.467H49.9085Z" fill="black"/>
<path id="Vector_4" d="M63.7071 8.81934H71.3959L75.4805 21.6569L79.5652 8.81934H87.2197L78.5355 31.4738H72.2883L63.7071 8.81934Z" fill="black"/>
<path id="Vector_5" d="M88.0092 20.2839C88.0092 18.3961 88.2838 16.6798 88.833 15.1695C89.3822 13.6592 90.1373 12.3549 91.1327 11.2908C92.1281 10.2611 93.2952 9.43725 94.7025 8.85373C96.0755 8.2702 97.6201 7.99561 99.3021 7.99561C100.984 7.99561 102.529 8.30453 103.867 8.88805C105.206 9.5059 106.339 10.3297 107.265 11.4281C108.158 12.4922 108.879 13.7965 109.359 15.3068C109.84 16.8171 110.114 18.499 110.114 20.3183L109.943 22.5837H95.0801C95.1487 23.6478 95.6293 24.4716 96.5217 25.0208C97.4142 25.57 98.4439 25.8446 99.611 25.8446C100.675 25.8446 101.602 25.6386 102.391 25.2267C103.181 24.8148 103.902 24.197 104.554 23.3732L109.222 27.4235C107.986 29.1054 106.545 30.3411 104.897 31.0963C103.249 31.8858 101.396 32.2633 99.3364 32.2633C97.6545 32.2633 96.1442 31.9887 94.7368 31.4395C93.3639 30.8903 92.1625 30.1009 91.1327 29.0368C90.103 27.9727 89.3478 26.737 88.7986 25.261C88.2494 23.7851 88.0092 22.1032 88.0435 20.2496L88.0092 20.2839ZM103.112 17.126C102.941 16.1993 102.494 15.4784 101.773 15.0322C101.053 14.586 100.229 14.3457 99.3364 14.3457C98.3066 14.3457 97.4142 14.586 96.6934 15.1009C95.9725 15.5814 95.5606 16.2679 95.4577 17.1604H103.112V17.126Z" fill="black"/>
<path id="Vector_6" d="M112.826 0.306641H120V31.4737H112.826V0.306641Z" fill="black"/>
<path id="Vector_7" d="M14.0046 67.5148C12.8375 67.5148 11.7048 67.3088 10.6751 66.8969C9.64532 66.485 8.78719 65.9015 8.13502 65.1807V73.7276H1.02975V44.5514H8.10069V46.5766C8.68422 45.9244 9.50802 45.3752 10.5378 44.929C11.6018 44.4828 12.8032 44.2425 14.1762 44.1738C15.6522 44.1738 17.0252 44.3798 18.3295 44.8947C19.6339 45.4095 20.7323 46.1647 21.6934 47.1258C22.6201 48.1555 23.3753 49.3912 23.8902 50.9015C24.4394 52.4118 24.714 54.0937 24.7483 56.0159C24.7483 58.0068 24.508 59.7574 23.9588 61.199C23.4096 62.6406 22.6545 63.842 21.6934 64.7688C20.6979 65.6956 19.5652 66.3821 18.2266 66.8283C16.8879 67.2745 15.4806 67.4805 13.9703 67.4805L14.0046 67.5148ZM12.8032 61.199C13.4211 61.2676 14.0046 61.199 14.6224 61.0274C15.2403 60.8558 15.7552 60.5468 16.2357 60.1349C16.7163 59.723 17.1282 59.1738 17.4028 58.453C17.6774 57.7322 17.849 56.8741 17.849 55.81C17.849 54.8832 17.7117 54.0594 17.4028 53.4072C17.1282 52.7207 16.7506 52.1715 16.3044 51.7253C15.8581 51.2791 15.3776 50.9702 14.7941 50.7642C14.2449 50.5583 13.6613 50.4553 13.1121 50.4553C11.7048 50.4553 10.5721 51.0045 9.67964 52.1029C8.78719 53.2013 8.34097 54.6429 8.34097 56.4622C8.34097 57.6635 8.75287 58.7276 9.61099 59.6887C10.4348 60.6155 11.4989 61.1304 12.8032 61.199Z" fill="black"/>
<path id="Vector_8" d="M39.2677 67.7208C37.4485 67.7208 35.8009 67.4462 34.2906 66.8627C32.7803 66.3135 31.476 65.4897 30.3776 64.4599C29.3135 63.4302 28.4554 62.1601 27.8718 60.7185C27.2883 59.2768 26.9794 57.6292 26.9794 55.81C26.9794 53.9908 27.2883 52.3089 27.9405 50.8329C28.5927 49.3569 29.4851 48.0869 30.5835 47.0915C31.6819 46.0617 32.9863 45.3066 34.4622 44.7574C35.9725 44.2082 37.5515 43.9336 39.2677 43.9336C40.984 43.9336 42.5286 44.2082 44.0389 44.7574C45.5492 45.3066 46.8535 46.0961 47.9863 47.0915C49.0847 48.1212 49.9771 49.3569 50.6293 50.8329C51.2815 52.3089 51.6247 53.9908 51.6247 55.81C51.6247 57.6292 51.3158 59.2425 50.6979 60.7185C50.0801 62.1601 49.222 63.4302 48.1579 64.4599C47.0595 65.4897 45.7551 66.3135 44.2448 66.8627C42.7346 67.4119 41.087 67.7208 39.3021 67.7208H39.2677ZM39.1991 61.199C40.5721 61.199 41.8078 60.7528 42.8718 59.8604C43.9359 58.9679 44.4851 57.6292 44.4851 55.81C44.4851 53.9908 43.9359 52.7551 42.8718 51.8283C41.8078 50.9016 40.5721 50.421 39.1991 50.421C37.8261 50.421 36.659 50.9016 35.6293 51.8283C34.5995 52.7551 34.0847 54.0938 34.0847 55.81C34.0847 57.5263 34.5995 58.9679 35.6293 59.8604C36.659 60.7528 37.8604 61.199 39.1991 61.199Z" fill="black"/>
<path id="Vector_9" d="M67.1739 44.311V51.1074H66.5217C65.6636 51.1074 64.8055 51.2447 63.9817 51.4849C63.1579 51.7252 62.3341 52.1028 61.5789 52.652V67.2058H54.2334V44.5513H61.5789V46.1989C62.3341 45.6154 63.0549 45.2035 63.8101 44.9289C64.5652 44.6543 65.4233 44.4483 66.4188 44.3454H67.1739V44.311Z" fill="black"/>
<path id="Vector_10" d="M80.6979 57.6636C80.6979 58.556 80.7666 59.2082 80.9039 59.6545C81.0412 60.1007 81.3501 60.4096 81.7963 60.5469C82.1053 60.6499 82.4142 60.6842 82.7574 60.6842C83.1007 60.6842 83.6156 60.5126 84.2677 60.2723L85.4691 66.5881C84.405 67.0686 83.1007 67.4119 81.5561 67.5492C80.0114 67.6865 78.6384 67.5149 77.4371 67C75.9954 66.4165 75 65.4897 74.4165 64.1853C73.833 62.881 73.5584 61.1647 73.5584 59.0023V50.9702H69.8513V44.5515H73.5584V36.6567H80.6979V44.5515H85.2975V50.9702H80.6979V57.6979V57.6636Z" fill="black"/>
<path id="Vector_11" d="M95.492 67.5494C98.3356 67.5494 100.641 65.2443 100.641 62.4007C100.641 59.5571 98.3356 57.252 95.492 57.252C92.6484 57.252 90.3433 59.5571 90.3433 62.4007C90.3433 65.2443 92.6484 67.5494 95.492 67.5494Z" fill="#0247FF"/>
</g>
<defs>
<clipPath id="clip0_140_2449">
<rect width="120" height="73.3867" fill="white" transform="translate(0 0.306641)"/>
</clipPath>
</defs>
</svg>
