<svg width="21" height="20" viewBox="0 0 21 20" fill="none" xmlns="http://www.w3.org/2000/svg">
<g id="mail-02">
<path id="Icon" d="M18.416 15.0002L12.8803 10.0002M8.1184 10.0002L2.58271 15.0002M2.16602 5.8335L8.97011 10.5964C9.52109 10.982 9.79658 11.1749 10.0962 11.2496C10.3609 11.3156 10.6378 11.3156 10.9025 11.2496C11.2021 11.1749 11.4776 10.982 12.0286 10.5964L18.8327 5.8335M6.16602 16.6668H14.8327C16.2328 16.6668 16.9329 16.6668 17.4677 16.3943C17.9381 16.1547 18.3205 15.7722 18.5602 15.3018C18.8327 14.767 18.8327 14.067 18.8327 12.6668V7.3335C18.8327 5.93336 18.8327 5.2333 18.5602 4.69852C18.3205 4.22811 17.9381 3.84566 17.4677 3.60598C16.9329 3.3335 16.2328 3.3335 14.8327 3.3335H6.16602C4.76588 3.3335 4.06582 3.3335 3.53104 3.60598C3.06063 3.84566 2.67818 4.22811 2.4385 4.69852C2.16602 5.2333 2.16602 5.93336 2.16602 7.3335V12.6668C2.16602 14.067 2.16602 14.767 2.4385 15.3018C2.67818 15.7722 3.06063 16.1547 3.53104 16.3943C4.06582 16.6668 4.76588 16.6668 6.16602 16.6668Z" stroke="black" stroke-width="1.2" stroke-linecap="round" stroke-linejoin="round"/>
</g>
</svg>
