<svg width="16" height="16" viewBox="0 0 16 16" fill="none" xmlns="http://www.w3.org/2000/svg">
<g id="box">
<path id="Icon" d="M13.6673 5.33333V10.8C13.6673 11.9201 13.6673 12.4802 13.4493 12.908C13.2576 13.2843 12.9516 13.5903 12.5753 13.782C12.1475 14 11.5874 14 10.4673 14H5.53398C4.41388 14 3.85383 14 3.426 13.782C3.04968 13.5903 2.74372 13.2843 2.55197 12.908C2.33398 12.4802 2.33398 11.9201 2.33398 10.8V5.33333M2.40065 2H13.6007C13.974 2 14.1607 2 14.3033 2.07266C14.4288 2.13658 14.5307 2.23856 14.5947 2.36401C14.6673 2.50661 14.6673 2.6933 14.6673 3.06667V4.26667C14.6673 4.64004 14.6673 4.82672 14.5947 4.96933C14.5307 5.09477 14.4288 5.19676 14.3033 5.26067C14.1607 5.33333 13.974 5.33333 13.6007 5.33333H2.40065C2.02728 5.33333 1.8406 5.33333 1.69799 5.26067C1.57255 5.19676 1.47056 5.09477 1.40665 4.96933C1.33398 4.82672 1.33398 4.64004 1.33398 4.26667V3.06667C1.33398 2.6933 1.33398 2.50661 1.40665 2.36401C1.47056 2.23856 1.57255 2.13658 1.69799 2.07266C1.8406 2 2.02728 2 2.40065 2ZM6.40065 7.66667H9.60065C9.97402 7.66667 10.1607 7.66667 10.3033 7.73933C10.4288 7.80324 10.5307 7.90523 10.5947 8.03067C10.6673 8.17328 10.6673 8.35997 10.6673 8.73333V9.26667C10.6673 9.64003 10.6673 9.82672 10.5947 9.96933C10.5307 10.0948 10.4288 10.1968 10.3033 10.2607C10.1607 10.3333 9.97402 10.3333 9.60065 10.3333H6.40065C6.02728 10.3333 5.8406 10.3333 5.69799 10.2607C5.57255 10.1968 5.47056 10.0948 5.40665 9.96933C5.33398 9.82672 5.33398 9.64003 5.33398 9.26667V8.73333C5.33398 8.35997 5.33398 8.17328 5.40665 8.03067C5.47056 7.90523 5.57255 7.80324 5.69799 7.73933C5.8406 7.66667 6.02728 7.66667 6.40065 7.66667Z" stroke="black" stroke-width="1.2" stroke-linecap="round" stroke-linejoin="round"/>
</g>
</svg>
