<svg width="321" height="104" viewBox="0 0 321 104" fill="none" xmlns="http://www.w3.org/2000/svg">
<path d="M0.255 61.26L53.607 2.76H92.802V61.26H98.535V90.51H92.802V101.04H53.607V90.51H2.595L0.255 61.26ZM35.121 61.26H53.607V40.902L35.121 61.26ZM160.545 103.38C125.796 103.38 103.215 83.841 102.045 54.123H143.112C143.931 62.313 150.132 68.865 160.545 68.865C171.66 68.865 178.095 61.143 178.095 51.783C178.095 42.423 171.777 34.935 160.545 34.935C150.015 34.935 143.229 41.604 143.112 52.953L102.045 49.443C103.332 19.842 125.913 0.419999 160.545 0.419999C196.113 0.419999 219.045 20.895 219.045 51.9C219.045 82.905 196.113 103.38 160.545 103.38ZM221.915 61.26L275.267 2.76H314.462V61.26H320.195V90.51H314.462V101.04H275.267V90.51H224.255L221.915 61.26ZM256.781 61.26H275.267V40.902L256.781 61.26Z" fill="black"/>
</svg>
