<svg width="160" height="60" viewBox="0 0 160 60" fill="none" xmlns="http://www.w3.org/2000/svg">
<g clip-path="url(#clip0_239_8960)">
<path d="M30 60C46.5685 60 60 46.5685 60 30C60 13.4315 46.5685 0 30 0C13.4315 0 0 13.4315 0 30C0 46.5685 13.4315 60 30 60Z" fill="black"/>
<path d="M6.3158 36.8999C10.2632 36.8999 10.2632 38.1631 14.2105 38.1631C18.1579 38.1631 18.1579 36.8999 22.1053 36.8999" stroke="#F2F2F2" stroke-width="2" stroke-miterlimit="10"/>
<path d="M22.1053 36.8999C26.0527 36.8999 26.0527 38.1631 30 38.1631C33.9474 38.1631 33.9474 36.8999 37.8948 36.8999" stroke="#F2F2F2" stroke-width="2" stroke-miterlimit="10"/>
<path d="M37.8947 36.8999C41.8421 36.8999 41.8421 38.1631 45.7895 38.1631C49.7368 38.1631 49.7368 36.8999 53.6842 36.8999" stroke="#F2F2F2" stroke-width="2" stroke-miterlimit="10"/>
<path d="M11.0526 44.0366C14.2105 44.0366 14.2105 45.0471 17.3684 45.0471C20.5263 45.0471 20.5263 44.0366 23.6842 44.0366" stroke="#F2F2F2" stroke-width="2" stroke-miterlimit="10"/>
<path d="M23.6842 44.0366C26.8421 44.0366 26.8421 45.0471 30 45.0471C33.1579 45.0471 33.1579 44.0366 36.3158 44.0366" stroke="#F2F2F2" stroke-width="2" stroke-miterlimit="10"/>
<path d="M36.3158 44.0366C39.4737 44.0366 39.4737 45.0471 42.6316 45.0471C45.7895 45.0471 45.7895 44.0366 48.9474 44.0366" stroke="#F2F2F2" stroke-width="2" stroke-miterlimit="10"/>
<path d="M22.1053 51.2368C24.079 51.2368 24.079 51.8684 26.0527 51.8684C28.0263 51.8684 28.0263 51.2368 30 51.2368" stroke="#F2F2F2" stroke-width="2" stroke-miterlimit="10"/>
<path d="M30 51.2368C31.9737 51.2368 31.9737 51.8684 33.9474 51.8684C35.9211 51.8684 35.9211 51.2368 37.8948 51.2368" stroke="#F2F2F2" stroke-width="2" stroke-miterlimit="10"/>
<path d="M50.6211 30.4261C52.3128 30.4261 53.6842 29.0547 53.6842 27.363C53.6842 25.6712 52.3128 24.2998 50.6211 24.2998C48.9293 24.2998 47.5579 25.6712 47.5579 27.363C47.5579 29.0547 48.9293 30.4261 50.6211 30.4261Z" fill="#0247FF"/>
</g>
<g clip-path="url(#clip1_239_8960)">
<path d="M77.1207 5.4209H92.9766V10.028H87.4808V26.2581H82.4761V10.028H77.1207V5.4209Z" fill="black"/>
<path d="M102.238 10.6597V15.2902H101.793C101.209 15.2902 100.624 15.3837 100.063 15.5474C99.478 15.7111 98.9401 15.9684 98.4256 16.3425V26.2584H93.4209V10.8H98.4256V11.9225C98.9401 11.525 99.4312 11.2443 99.9457 11.0572C100.46 10.8701 101.045 10.7298 101.723 10.6597H102.238Z" fill="black"/>
<path d="M114.539 26.2347V24.8783C114.071 25.3694 113.486 25.7436 112.785 26.0242C112.083 26.3049 111.335 26.4218 110.516 26.4218C109.487 26.4218 108.529 26.2581 107.616 25.9541C106.728 25.6266 105.933 25.1589 105.254 24.5041C104.6 23.8493 104.085 23.0308 103.734 22.0252C103.36 21.0195 103.196 19.8268 103.243 18.447C103.29 17.0906 103.5 15.8979 103.921 14.8689C104.342 13.8399 104.904 13.0214 105.582 12.3666C106.26 11.7118 107.032 11.2207 107.92 10.9166C108.809 10.6126 109.721 10.4723 110.68 10.5191C111.475 10.5658 112.224 10.7529 112.878 11.0803C113.533 11.4078 114.071 11.7819 114.515 12.2263V10.8231H119.38V26.2581H114.515L114.539 26.2347ZM111.124 22.1421C111.943 22.1421 112.645 21.9316 113.253 21.534C113.861 21.1365 114.211 20.505 114.398 19.6397C114.398 19.593 114.398 19.4527 114.422 19.2656C114.422 19.0785 114.445 18.9382 114.445 18.8914C114.445 17.5817 114.141 16.5761 113.51 15.8512C112.902 15.1496 112.13 14.7754 111.241 14.7754C110.47 14.7286 109.768 15.0326 109.113 15.6407C108.458 16.2487 108.131 17.1842 108.131 18.4237C108.131 19.6631 108.412 20.5752 108.996 21.2066C109.581 21.8381 110.282 22.1421 111.148 22.1421H111.124Z" fill="black"/>
<path d="M120.526 10.7998H125.764L128.547 19.5463L131.33 10.7998H136.545L130.629 26.2348H126.372L120.526 10.7998Z" fill="black"/>
<path d="M137.083 18.6111C137.083 17.3248 137.27 16.1555 137.645 15.1265C138.019 14.0975 138.533 13.2088 139.211 12.4839C139.89 11.7823 140.685 11.221 141.644 10.8234C142.579 10.4259 143.631 10.2388 144.777 10.2388C145.923 10.2388 146.976 10.4492 147.888 10.8468C148.8 11.2678 149.572 11.829 150.203 12.5774C150.811 13.3024 151.302 14.1911 151.63 15.2201C151.957 16.2491 152.144 17.395 152.144 18.6345L152.027 20.178H141.901C141.948 20.9029 142.275 21.4642 142.883 21.8384C143.491 22.2126 144.193 22.3997 144.988 22.3997C145.713 22.3997 146.344 22.2594 146.882 21.9787C147.42 21.6981 147.911 21.2771 148.355 20.7158L151.536 23.4754C150.694 24.6214 149.712 25.4633 148.589 25.9778C147.467 26.5157 146.204 26.7729 144.801 26.7729C143.655 26.7729 142.626 26.5858 141.667 26.2116C140.732 25.8375 139.913 25.2996 139.211 24.5746C138.51 23.8496 137.995 23.0077 137.621 22.0021C137.247 20.9965 137.083 19.8506 137.107 18.5877L137.083 18.6111ZM147.373 16.4595C147.256 15.8281 146.952 15.337 146.461 15.033C145.97 14.7289 145.409 14.5652 144.801 14.5652C144.099 14.5652 143.491 14.7289 143 15.0797C142.509 15.4072 142.228 15.8749 142.158 16.4829H147.373V16.4595Z" fill="black"/>
<path d="M153.992 5H158.879V26.2348H153.992V5Z" fill="black"/>
<path d="M86.6623 50.7904C85.8672 50.7904 85.0954 50.6501 84.3938 50.3695C83.6922 50.0888 83.1076 49.6912 82.6632 49.2001V55.0233H77.8223V35.1449H82.6399V36.5247C83.0374 36.0804 83.5987 35.7062 84.3003 35.4022C85.0253 35.0982 85.8438 34.9345 86.7792 34.8877C87.7848 34.8877 88.7203 35.028 89.609 35.3788C90.4977 35.7296 91.246 36.2441 91.9008 36.8989C92.5323 37.6005 93.0468 38.4424 93.3976 39.4714C93.7718 40.5004 93.9588 41.6463 93.9822 42.956C93.9822 44.3124 93.8185 45.5051 93.4443 46.4873C93.0702 47.4695 92.5557 48.2881 91.9008 48.9195C91.2226 49.5509 90.4509 50.0187 89.5388 50.3227C88.6268 50.6267 87.6679 50.767 86.6389 50.767L86.6623 50.7904ZM85.8438 46.4873C86.2647 46.5341 86.6623 46.4873 87.0833 46.3704C87.5042 46.2535 87.855 46.043 88.1824 45.7623C88.5098 45.4817 88.7905 45.1075 88.9776 44.6164C89.1646 44.1253 89.2816 43.5406 89.2816 42.8157C89.2816 42.1842 89.188 41.623 88.9776 41.1786C88.7905 40.7109 88.5332 40.3367 88.2292 40.0327C87.9252 39.7287 87.5978 39.5182 87.2002 39.3779C86.826 39.2376 86.4284 39.1674 86.0543 39.1674C85.0954 39.1674 84.3237 39.5416 83.7156 40.2899C83.1076 41.0383 82.8036 42.0205 82.8036 43.26C82.8036 44.0785 83.0842 44.8035 83.6689 45.4583C84.2301 46.0898 84.9551 46.4405 85.8438 46.4873Z" fill="black"/>
<path d="M103.875 50.9309C102.635 50.9309 101.513 50.7438 100.484 50.3462C99.4546 49.972 98.5659 49.4107 97.8176 48.7092C97.0926 48.0076 96.5079 47.1423 96.1104 46.16C95.7128 45.1778 95.5023 44.0553 95.5023 42.8158C95.5023 41.5763 95.7128 40.4304 96.1572 39.4248C96.6015 38.4192 97.2095 37.5539 97.9579 36.8757C98.7063 36.1741 99.5949 35.6596 100.601 35.2854C101.63 34.9112 102.705 34.7241 103.875 34.7241C105.044 34.7241 106.096 34.9112 107.125 35.2854C108.154 35.6596 109.043 36.1975 109.815 36.8757C110.563 37.5773 111.171 38.4192 111.616 39.4248C112.06 40.4304 112.294 41.5763 112.294 42.8158C112.294 44.0553 112.083 45.1544 111.662 46.16C111.241 47.1423 110.657 48.0076 109.932 48.7092C109.183 49.4107 108.295 49.972 107.266 50.3462C106.237 50.7204 105.114 50.9309 103.898 50.9309H103.875ZM103.828 46.4875C104.763 46.4875 105.605 46.1834 106.33 45.5754C107.055 44.9673 107.429 44.0553 107.429 42.8158C107.429 41.5763 107.055 40.7344 106.33 40.103C105.605 39.4715 104.763 39.1441 103.828 39.1441C102.892 39.1441 102.097 39.4715 101.396 40.103C100.694 40.7344 100.343 41.6465 100.343 42.8158C100.343 43.9851 100.694 44.9673 101.396 45.5754C102.097 46.1834 102.916 46.4875 103.828 46.4875Z" fill="black"/>
<path d="M122.888 34.9814V39.6119H122.443C121.859 39.6119 121.274 39.7055 120.713 39.8692C120.152 40.0329 119.59 40.2901 119.076 40.6643V50.5801H114.071V35.1452H119.076V36.2677C119.59 35.8701 120.081 35.5895 120.596 35.4024C121.11 35.2153 121.695 35.075 122.373 35.0048H122.888V34.9814Z" fill="black"/>
<path d="M132.102 44.0786C132.102 44.6866 132.149 45.1309 132.242 45.435C132.336 45.739 132.546 45.9495 132.85 46.043C133.061 46.1132 133.271 46.1366 133.505 46.1366C133.739 46.1366 134.09 46.0196 134.534 45.8559L135.353 50.159C134.628 50.4864 133.739 50.7203 132.687 50.8138C131.634 50.9074 130.699 50.7904 129.88 50.4396C128.898 50.0421 128.22 49.4106 127.822 48.522C127.425 47.6333 127.238 46.464 127.238 44.9906V39.5182H124.712V35.145H127.238V29.7661H132.102V35.145H135.236V39.5182H132.102V44.1019V44.0786Z" fill="black"/>
<path d="M142.181 50.8138C144.119 50.8138 145.689 49.2432 145.689 47.3058C145.689 45.3684 144.119 43.7979 142.181 43.7979C140.244 43.7979 138.674 45.3684 138.674 47.3058C138.674 49.2432 140.244 50.8138 142.181 50.8138Z" fill="#0247FF"/>
</g>
<defs>
<clipPath id="clip0_239_8960">
<rect width="60" height="60" fill="white"/>
</clipPath>
<clipPath id="clip1_239_8960">
<rect width="81.7587" height="50" fill="white" transform="translate(77.1207 5)"/>
</clipPath>
</defs>
</svg>
