<svg width="14" height="14" viewBox="0 0 14 14" fill="none" xmlns="http://www.w3.org/2000/svg">
<path d="M7.46838 1.375H6.53088C6.44755 1.375 6.40588 1.41667 6.40588 1.5V6.40625H1.75C1.66667 6.40625 1.625 6.44792 1.625 6.53125V7.46875C1.625 7.55208 1.66667 7.59375 1.75 7.59375H6.40588V12.5C6.40588 12.5833 6.44755 12.625 6.53088 12.625H7.46838C7.55172 12.625 7.59338 12.5833 7.59338 12.5V7.59375H12.25C12.3333 7.59375 12.375 7.55208 12.375 7.46875V6.53125C12.375 6.44792 12.3333 6.40625 12.25 6.40625H7.59338V1.5C7.59338 1.41667 7.55172 1.375 7.46838 1.375Z" fill="black" fill-opacity="0.85"/>
</svg>
