<svg width="16" height="16" viewBox="0 0 16 16" fill="none" xmlns="http://www.w3.org/2000/svg">
<g id="clipboard-check">
<path id="Icon" d="M10.666 2.66634C11.286 2.66634 11.596 2.66634 11.8503 2.73449C12.5405 2.91942 13.0796 3.45852 13.2645 4.1487C13.3327 4.40304 13.3327 4.71303 13.3327 5.33301V11.4663C13.3327 12.5864 13.3327 13.1465 13.1147 13.5743C12.9229 13.9506 12.617 14.2566 12.2407 14.4484C11.8128 14.6663 11.2528 14.6663 10.1327 14.6663H5.86602C4.74591 14.6663 4.18586 14.6663 3.75803 14.4484C3.38171 14.2566 3.07575 13.9506 2.884 13.5743C2.66602 13.1465 2.66602 12.5864 2.66602 11.4663V5.33301C2.66602 4.71303 2.66602 4.40304 2.73416 4.1487C2.9191 3.45852 3.45819 2.91942 4.14838 2.73449C4.40271 2.66634 4.7127 2.66634 5.33268 2.66634M5.99935 9.99967L7.33268 11.333L10.3327 8.33301M6.39935 3.99967H9.59935C9.97272 3.99967 10.1594 3.99967 10.302 3.92701C10.4275 3.8631 10.5294 3.76111 10.5934 3.63567C10.666 3.49306 10.666 3.30638 10.666 2.93301V2.39967C10.666 2.02631 10.666 1.83962 10.5934 1.69701C10.5294 1.57157 10.4275 1.46959 10.302 1.40567C10.1594 1.33301 9.97272 1.33301 9.59935 1.33301H6.39935C6.02598 1.33301 5.8393 1.33301 5.69669 1.40567C5.57125 1.46959 5.46926 1.57157 5.40534 1.69701C5.33268 1.83962 5.33268 2.02631 5.33268 2.39967V2.93301C5.33268 3.30638 5.33268 3.49306 5.40534 3.63567C5.46926 3.76111 5.57125 3.8631 5.69669 3.92701C5.8393 3.99967 6.02598 3.99967 6.39935 3.99967Z" stroke="black" stroke-width="1.2" stroke-linecap="round" stroke-linejoin="round"/>
</g>
</svg>
