<svg width="32" height="33" viewBox="0 0 32 33" fill="none" xmlns="http://www.w3.org/2000/svg">
<g id="shopping-cart-01">
<path id="Icon" d="M2.66602 3.1665H4.40757C4.73559 3.1665 4.8996 3.1665 5.03159 3.22682C5.14791 3.27998 5.24648 3.36547 5.31555 3.4731C5.39393 3.59523 5.41712 3.7576 5.46351 4.08232L6.09459 8.49984M6.09459 8.49984L7.49711 18.8084C7.67509 20.1165 7.76408 20.7706 8.07682 21.263C8.35239 21.6968 8.74746 22.0418 9.21449 22.2563C9.7445 22.4998 10.4046 22.4998 11.7248 22.4998H23.1353C24.3921 22.4998 25.0204 22.4998 25.534 22.2737C25.9867 22.0744 26.3751 21.753 26.6557 21.3455C26.9739 20.8833 27.0915 20.2661 27.3266 19.0315L29.0915 9.76609C29.1743 9.33158 29.2156 9.11433 29.1557 8.9445C29.1031 8.79553 28.9992 8.67008 28.8627 8.59053C28.7071 8.49984 28.486 8.49984 28.0437 8.49984H6.09459ZM13.3327 28.4998C13.3327 29.2362 12.7357 29.8332 11.9993 29.8332C11.263 29.8332 10.666 29.2362 10.666 28.4998C10.666 27.7635 11.263 27.1665 11.9993 27.1665C12.7357 27.1665 13.3327 27.7635 13.3327 28.4998ZM23.9993 28.4998C23.9993 29.2362 23.4024 29.8332 22.666 29.8332C21.9296 29.8332 21.3327 29.2362 21.3327 28.4998C21.3327 27.7635 21.9296 27.1665 22.666 27.1665C23.4024 27.1665 23.9993 27.7635 23.9993 28.4998Z" stroke="black" stroke-width="2" stroke-linecap="round" stroke-linejoin="round"/>
</g>
</svg>
