<svg width="16" height="16" viewBox="0 0 16 16" fill="none" xmlns="http://www.w3.org/2000/svg">
<g id="shopping-cart-01" clip-path="url(#clip0_987_9406)">
<path id="Icon" d="M1.33325 1.3335H2.20403C2.36804 1.3335 2.45005 1.3335 2.51604 1.36366C2.5742 1.39023 2.62348 1.43298 2.65802 1.48679C2.69721 1.54786 2.70881 1.62904 2.732 1.7914L3.04754 4.00016M3.04754 4.00016L3.7488 9.15443C3.83779 9.80851 3.88228 10.1356 4.03865 10.3817C4.17644 10.5986 4.37397 10.7711 4.60749 10.8784C4.87249 11.0002 5.20255 11.0002 5.86266 11.0002H11.5679C12.1963 11.0002 12.5105 11.0002 12.7672 10.8871C12.9936 10.7874 13.1878 10.6267 13.3281 10.423C13.4872 10.1919 13.546 9.88327 13.6636 9.266L14.546 4.63329C14.5874 4.41603 14.6081 4.30741 14.5781 4.2225C14.5518 4.14801 14.4999 4.08529 14.4316 4.04551C14.3538 4.00016 14.2432 4.00016 14.0221 4.00016H3.04754ZM6.66659 14.0002C6.66659 14.3684 6.36811 14.6668 5.99992 14.6668C5.63173 14.6668 5.33325 14.3684 5.33325 14.0002C5.33325 13.632 5.63173 13.3335 5.99992 13.3335C6.36811 13.3335 6.66659 13.632 6.66659 14.0002ZM11.9999 14.0002C11.9999 14.3684 11.7014 14.6668 11.3333 14.6668C10.9651 14.6668 10.6666 14.3684 10.6666 14.0002C10.6666 13.632 10.9651 13.3335 11.3333 13.3335C11.7014 13.3335 11.9999 13.632 11.9999 14.0002Z" stroke="black" stroke-width="1.2" stroke-linecap="round" stroke-linejoin="round"/>
</g>
<defs>
<clipPath id="clip0_987_9406">
<rect width="16" height="16" fill="white"/>
</clipPath>
</defs>
</svg>
