<svg width="74" height="28" viewBox="0 0 74 28" fill="none" xmlns="http://www.w3.org/2000/svg">
<rect width="74" height="28" fill="white"/>
<g clip-path="url(#clip0_248_1711)">
<path d="M13.0007 14.0007L15.0007 16.0007L19.0007 12.0007M22.6673 14.0007C22.6673 17.6826 19.6826 20.6673 16.0007 20.6673C12.3188 20.6673 9.33398 17.6826 9.33398 14.0007C9.33398 10.3188 12.3188 7.33398 16.0007 7.33398C19.6826 7.33398 22.6673 10.3188 22.6673 14.0007Z" stroke="#356EFF" stroke-width="1.2" stroke-linecap="round" stroke-linejoin="round"/>
</g>
<path d="M29.96 14.268L29.036 12.994C30.156 12.518 31.038 12.0653 31.682 11.636C32.3353 11.1973 32.7973 10.754 33.068 10.306C33.348 9.858 33.488 9.368 33.488 8.836V8.332H35.196V8.878C35.196 9.86733 34.916 10.7213 34.356 11.44L34.454 11.482L35 11.076C35.196 10.936 35.3873 10.866 35.574 10.866C35.742 10.866 35.9053 10.9127 36.064 11.006L39.452 12.938L38.514 14.226L34.72 11.958C34.58 11.874 34.4353 11.832 34.286 11.832C34.1367 11.832 33.9873 11.8833 33.838 11.986H33.824C33.4227 12.3593 32.914 12.728 32.298 13.092C31.682 13.4467 30.9027 13.8387 29.96 14.268ZM40.012 16.62H35.084V20.96H33.404V16.62H28.476V15.206H40.012V16.62ZM52.8444 12.588H50.9684V15.822H49.3024V8.136H50.9684V11.202H52.8444V12.588ZM48.2804 15.094C47.5244 15.2247 46.7124 15.3273 45.8444 15.402C44.9764 15.4767 43.9311 15.514 42.7084 15.514H41.3784V11.426H45.4244V10.166H41.3364V8.822H47.0484V12.756H42.9884V14.184C44.9578 14.1747 46.6564 14.0393 48.0844 13.778L48.2804 15.094ZM42.8484 16.466H50.9684V21.142H49.3304V17.866H42.8484V16.466ZM64.1228 15.752H62.4568V8.136H64.1228V15.752ZM61.8268 15.206C60.7908 15.3553 59.5355 15.4767 58.0608 15.57C56.5862 15.654 55.0975 15.696 53.5948 15.696L53.4548 14.324C54.5562 14.324 55.6388 14.31 56.7028 14.282V13.106H54.5188V8.71H60.6228V10.012H56.1148V11.804H60.7068V13.106H58.3128V14.212C59.7968 14.128 60.9215 14.0347 61.6868 13.932L61.8268 15.206ZM64.1368 16.354V20.988H57.0528C56.3435 20.988 55.9888 20.6333 55.9888 19.924V16.354H64.1368ZM62.4848 17.684H57.6408V19.672H62.4848V17.684Z" fill="#356EFF"/>
<defs>
<clipPath id="clip0_248_1711">
<rect width="16" height="16" fill="white" transform="translate(8 6)"/>
</clipPath>
</defs>
</svg>
