<svg width="74" height="28" viewBox="0 0 74 28" fill="none" xmlns="http://www.w3.org/2000/svg">
<rect width="74" height="28" fill="white"/>
<path d="M16 7.5V9.16667M16 18V20.6667M11.8333 14H9.5M22.1667 14H21.1667M20.3047 18.3047L19.8333 17.8333M20.4428 9.61052L19.5 10.5533M11.281 18.719L13.1667 16.8333M11.4191 9.47245L12.8333 10.8867" stroke="#FAAD14" stroke-width="1.2" stroke-linecap="round" stroke-linejoin="round"/>
<path d="M39.424 8.136V20.484H37.828V14.058H36.68V20.148H35.084V8.318H36.68V12.686H37.828V8.136H39.424ZM34.146 15.612L34.356 16.942C33.1333 17.2313 31.6727 17.376 29.974 17.376H28.924V9.382H33.642V10.782H30.534V16.004C32.046 15.9947 33.25 15.864 34.146 15.612ZM49.9324 8.136H51.6124V20.484H49.9324V8.136ZM41.3364 16.704C42.5591 16.088 43.4878 15.5233 44.1224 15.01C44.7664 14.4967 45.2191 13.946 45.4804 13.358C45.7418 12.77 45.8724 12.0467 45.8724 11.188V10.516H41.7564V9.116H47.5664V11.188C47.5664 12.252 47.4031 13.1573 47.0764 13.904C46.7498 14.6413 46.2131 15.3273 45.4664 15.962C44.7198 16.5873 43.6698 17.264 42.3164 17.992L41.3364 16.704ZM58.3828 9.872H54.8408V8.556H63.5768V9.872H60.0488C59.9928 10.46 59.7782 10.964 59.4048 11.384L59.4888 11.412L59.9368 11.09C60.1142 10.9687 60.2915 10.908 60.4688 10.908C60.6275 10.908 60.7908 10.95 60.9588 11.034L64.1508 12.448L63.2828 13.666L59.6568 11.93C59.5075 11.8553 59.3722 11.818 59.2508 11.818C59.1108 11.818 58.9755 11.8553 58.8448 11.93L58.7608 11.972C58.0142 12.5413 56.7962 13.1107 55.1068 13.68L54.2668 12.49C55.6202 12.0513 56.6142 11.6313 57.2488 11.23C57.8835 10.8193 58.2615 10.3667 58.3828 9.872ZM60.0488 15.542V16.368C61.1408 16.4613 61.9808 16.7227 62.5688 17.152C63.1568 17.572 63.4508 18.1133 63.4508 18.776C63.4508 19.5227 63.0775 20.1153 62.3308 20.554C61.5935 21.002 60.5528 21.226 59.2088 21.226C57.8648 21.226 56.8195 21.002 56.0728 20.554C55.3355 20.1153 54.9668 19.5227 54.9668 18.776C54.9668 18.1133 55.2608 17.572 55.8488 17.152C56.4368 16.7227 57.2768 16.4613 58.3688 16.368V15.542H53.4408V14.184H64.9768V15.542H60.0488ZM59.2088 17.628C58.3595 17.628 57.7248 17.7307 57.3048 17.936C56.8848 18.132 56.6748 18.3887 56.6748 18.706V18.874C56.6748 19.182 56.8848 19.434 57.3048 19.63C57.7248 19.8353 58.3595 19.938 59.2088 19.938C60.0582 19.938 60.6882 19.8353 61.0988 19.63C61.5188 19.434 61.7288 19.182 61.7288 18.874V18.706C61.7288 18.3887 61.5188 18.132 61.0988 17.936C60.6882 17.7307 60.0582 17.628 59.2088 17.628Z" fill="#FAAD14"/>
</svg>
