<svg width="74" height="28" viewBox="0 0 74 28" fill="none" xmlns="http://www.w3.org/2000/svg">
<rect width="74" height="28" fill="white"/>
<g clip-path="url(#clip0_248_1709)">
<path d="M11.2873 9.28732L20.714 18.714M20.7139 9.28731L11.2873 18.714M22.6673 14.0007C22.6673 17.6826 19.6826 20.6673 16.0007 20.6673C12.3188 20.6673 9.33398 17.6826 9.33398 14.0007C9.33398 10.3188 12.3188 7.33398 16.0007 7.33398C19.6826 7.33398 22.6673 10.3188 22.6673 14.0007Z" stroke="#FF4D4F" stroke-width="1.2" stroke-linecap="round" stroke-linejoin="round"/>
</g>
<path d="M39.144 8.136V20.484H37.492V14.212H35.14V12.812H37.492V8.136H39.144ZM29.134 9.116H34.832V11.188C34.832 12.252 34.6733 13.1573 34.356 13.904C34.0387 14.6413 33.516 15.3273 32.788 15.962C32.06 16.5873 31.038 17.264 29.722 17.992L28.728 16.718C29.9133 16.102 30.8187 15.5373 31.444 15.024C32.0693 14.5013 32.508 13.946 32.76 13.358C33.012 12.77 33.138 12.0467 33.138 11.188V10.516H29.134V9.116ZM49.9884 10.768V8.136H51.6544V14.618H49.9884V12.098H47.8464V10.768H49.9884ZM42.2184 14.87L41.0004 13.82C41.9991 13.1293 42.7271 12.4947 43.1844 11.916C43.6511 11.3373 43.9078 10.7213 43.9544 10.068H41.4624V8.724H48.0984V10.068H45.6064C45.5784 10.7307 45.3964 11.3653 45.0604 11.972L45.1584 12.028L45.5084 11.79C45.6671 11.678 45.8164 11.622 45.9564 11.622C46.1151 11.622 46.2691 11.678 46.4184 11.79L48.6304 13.54L47.4124 14.618L45.0884 12.658C45.0138 12.5927 44.9298 12.56 44.8364 12.56C44.7618 12.56 44.6871 12.588 44.6124 12.644C44.3511 12.9893 44.0291 13.3347 43.6464 13.68C43.2731 14.016 42.7971 14.4127 42.2184 14.87ZM51.9344 19.798V21.072H44.6264C43.9171 21.072 43.5624 20.7173 43.5624 20.008V17.572H50.0164V16.564H43.4924V15.29H51.6544V18.748H45.2004V19.798H51.9344ZM64.1228 15.752H62.4568V8.136H64.1228V15.752ZM61.8268 15.206C60.7908 15.3553 59.5355 15.4767 58.0608 15.57C56.5862 15.654 55.0975 15.696 53.5948 15.696L53.4548 14.324C54.5562 14.324 55.6388 14.31 56.7028 14.282V13.106H54.5188V8.71H60.6228V10.012H56.1148V11.804H60.7068V13.106H58.3128V14.212C59.7968 14.128 60.9215 14.0347 61.6868 13.932L61.8268 15.206ZM64.1368 16.354V20.988H57.0528C56.3435 20.988 55.9888 20.6333 55.9888 19.924V16.354H64.1368ZM62.4848 17.684H57.6408V19.672H62.4848V17.684Z" fill="#FF4D4F"/>
<defs>
<clipPath id="clip0_248_1709">
<rect width="16" height="16" fill="white" transform="translate(8 6)"/>
</clipPath>
</defs>
</svg>
