<svg width="164" height="100" viewBox="0 0 164 100" fill="none" xmlns="http://www.w3.org/2000/svg">
<g id="Layer_1" clip-path="url(#clip0_120_19587)">
<path id="Vector" d="M0.241211 0.841904H31.9531V10.0561H20.9615V42.5164H10.9522V10.0561H0.241211V0.841904Z" fill="black"/>
<path id="Vector_2" d="M50.4751 11.319V20.58H49.5864C48.4171 20.58 47.2478 20.7671 46.1252 21.0945C44.9559 21.4219 43.8801 21.9364 42.8512 22.6847V42.5164H32.8418V11.5996H42.8512V13.8447C43.8801 13.0496 44.8624 12.4883 45.8914 12.1141C46.9204 11.7399 48.0897 11.4593 49.4461 11.319H50.4751Z" fill="black"/>
<path id="Vector_3" d="M75.0775 42.4696V39.7568C74.142 40.739 72.9727 41.4874 71.5695 42.0486C70.1664 42.6099 68.6696 42.8438 67.0326 42.8438C64.9746 42.8438 63.0569 42.5164 61.2328 41.9083C59.4554 41.2535 57.8652 40.3181 56.5087 39.0084C55.1991 37.6988 54.1701 36.0617 53.4685 34.0505C52.7202 32.0393 52.3927 29.6539 52.4863 26.8943C52.5798 24.1815 53.0008 21.7961 53.8427 19.7381C54.6846 17.6801 55.8072 16.043 57.1636 14.7334C58.52 13.4238 60.0635 12.4415 61.8408 11.8335C63.6182 11.2254 65.4423 10.9448 67.36 11.0384C68.9503 11.1319 70.447 11.5061 71.7566 12.1609C73.0663 12.8157 74.142 13.5641 75.0307 14.4528V11.6464H84.7594V42.5164H75.0307L75.0775 42.4696ZM68.2487 34.2844C69.8857 34.2844 71.2889 33.8634 72.505 33.0683C73.7211 32.2732 74.4227 31.0103 74.7969 29.2797C74.7969 29.1862 74.7969 28.9055 74.8436 28.5313C74.8436 28.1572 74.8904 27.8765 74.8904 27.783C74.8904 25.1637 74.2824 23.1525 73.0195 21.7025C71.8034 20.2993 70.2599 19.551 68.4826 19.551C66.9391 19.4574 65.5359 20.0655 64.2262 21.2816C62.9166 22.4977 62.2618 24.3686 62.2618 26.8475C62.2618 29.3265 62.8231 31.1506 63.9924 32.4135C65.1617 33.6763 66.5649 34.2844 68.2955 34.2844H68.2487Z" fill="black"/>
<path id="Vector_4" d="M87.0518 11.5996H97.5288L103.095 29.0926L108.661 11.5996H119.091L107.258 42.4696H98.7449L87.0518 11.5996Z" fill="black"/>
<path id="Vector_5" d="M120.166 27.2217C120.166 24.6492 120.54 22.3106 121.289 20.2526C122.037 18.1946 123.066 16.4172 124.422 14.9673C125.779 13.5641 127.369 12.4415 129.287 11.6464C131.158 10.8513 133.262 10.4771 135.554 10.4771C137.846 10.4771 139.951 10.898 141.775 11.6932C143.599 12.5351 145.143 13.6576 146.405 15.1543C147.622 16.6043 148.604 18.3817 149.259 20.4397C149.913 22.4977 150.288 24.7895 150.288 27.2685L150.054 30.3555H129.801C129.895 31.8054 130.55 32.928 131.766 33.6763C132.982 34.4247 134.385 34.7989 135.975 34.7989C137.425 34.7989 138.688 34.5182 139.764 33.957C140.84 33.3957 141.822 32.5538 142.71 31.4312L149.072 36.9504C147.388 39.2423 145.423 40.9261 143.178 41.9551C140.933 43.0309 138.407 43.5454 135.601 43.5454C133.309 43.5454 131.251 43.1712 129.333 42.4228C127.463 41.6745 125.826 40.5987 124.422 39.1487C123.019 37.6988 121.99 36.015 121.242 34.0037C120.493 31.9925 120.166 29.7007 120.213 27.1749L120.166 27.2217ZM140.746 22.9186C140.512 21.6558 139.904 20.6735 138.922 20.0655C137.94 19.4574 136.817 19.13 135.601 19.13C134.198 19.13 132.982 19.4574 132 20.159C131.017 20.8138 130.456 21.7493 130.316 22.9654H140.746V22.9186Z" fill="black"/>
<path id="Vector_6" d="M153.983 0H163.759V42.4696H153.983V0Z" fill="black"/>
<path id="Vector_7" d="M19.3246 91.5809C17.7343 91.5809 16.1908 91.3003 14.7877 90.739C13.3845 90.1777 12.2152 89.3826 11.3265 88.4004V100.047H1.64453V60.29H11.2797V63.0496C12.0748 62.1609 13.1974 61.4125 14.6006 60.8045C16.0505 60.1965 17.6876 59.869 19.5585 59.7755C21.5697 59.7755 23.4406 60.0561 25.218 60.7577C26.9953 61.4593 28.4921 62.4883 29.8017 63.798C31.0646 65.2011 32.0936 66.8849 32.7951 68.9429C33.5435 71.0009 33.9177 73.2928 33.9645 75.9121C33.9645 78.6249 33.6371 81.0103 32.8887 82.9747C32.1403 84.9392 31.1113 86.5763 29.8017 87.8391C28.4453 89.102 26.9018 90.0374 25.0776 90.6455C23.2535 91.2535 21.3358 91.5342 19.2778 91.5342L19.3246 91.5809ZM17.6876 82.9747C18.5295 83.0683 19.3246 82.9748 20.1665 82.7409C21.0084 82.507 21.71 82.0861 22.3648 81.5248C23.0196 80.9635 23.5809 80.2152 23.9551 79.2329C24.3293 78.2507 24.5631 77.0814 24.5631 75.6314C24.5631 74.3686 24.3761 73.246 23.9551 72.3574C23.5809 71.4219 23.0664 70.6735 22.4584 70.0655C21.8503 69.4574 21.1955 69.0365 20.4004 68.7559C19.652 68.4752 18.8569 68.3349 18.1085 68.3349C16.1908 68.3349 14.6473 69.0833 13.4312 70.58C12.2152 72.0767 11.6071 74.0412 11.6071 76.5201C11.6071 78.1572 12.1684 79.6071 13.3377 80.9167C14.4602 82.1796 15.9102 82.8812 17.6876 82.9747Z" fill="black"/>
<path id="Vector_8" d="M53.7495 91.8616C51.2705 91.8616 49.0255 91.4874 46.9675 90.6922C44.9095 89.9439 43.1321 88.8213 41.6354 87.4182C40.1854 86.015 39.0161 84.2844 38.221 82.3199C37.4258 80.3555 37.0049 78.1104 37.0049 75.6314C37.0049 73.1525 37.4258 70.8606 38.3145 68.8494C39.2032 66.8382 40.4193 65.1076 41.916 63.7512C43.4127 62.348 45.1901 61.319 47.2013 60.5706C49.2593 59.8223 51.4109 59.4481 53.7495 59.4481C56.0881 59.4481 58.1929 59.8223 60.2509 60.5706C62.3089 61.319 64.0863 62.3948 65.6298 63.7512C67.1265 65.1544 68.3426 66.8382 69.2313 68.8494C70.1199 70.8606 70.5877 73.1525 70.5877 75.6314C70.5877 78.1104 70.1667 80.3087 69.3248 82.3199C68.4829 84.2844 67.3136 86.015 65.8636 87.4182C64.3669 88.8213 62.5895 89.9439 60.5315 90.6922C58.4735 91.4406 56.2285 91.8616 53.7963 91.8616H53.7495ZM53.656 82.9747C55.5269 82.9747 57.2107 82.3667 58.6606 81.1506C60.1106 79.9345 60.859 78.1104 60.859 75.6314C60.859 73.1525 60.1106 71.4687 58.6606 70.2058C57.2107 68.9429 55.5269 68.2881 53.656 68.2881C51.7851 68.2881 50.1948 68.9429 48.7916 70.2058C47.3884 71.4687 46.6868 73.2928 46.6868 75.6314C46.6868 77.9701 47.3884 79.9345 48.7916 81.1506C50.1948 82.3667 51.8318 82.9747 53.656 82.9747Z" fill="black"/>
<path id="Vector_9" d="M91.7749 59.9626V69.2236H90.8862C89.7169 69.2236 88.5476 69.4107 87.425 69.7381C86.3025 70.0655 85.18 70.58 84.151 71.3284V91.16H74.1416V60.29H84.151V62.5351C85.18 61.7399 86.1622 61.1787 87.1912 60.8045C88.2202 60.4303 89.3895 60.1497 90.7459 60.0094H91.7749V59.9626Z" fill="black"/>
<path id="Vector_10" d="M110.204 78.1572C110.204 79.3732 110.298 80.2619 110.485 80.87C110.672 81.478 111.093 81.899 111.701 82.0861C112.122 82.2264 112.543 82.2732 113.01 82.2732C113.478 82.2732 114.18 82.0393 115.068 81.7119L116.705 90.3181C115.255 90.9729 113.478 91.4406 111.373 91.6277C109.269 91.8148 107.398 91.5809 105.761 90.8793C103.796 90.0842 102.44 88.8213 101.645 87.044C100.849 85.2666 100.475 82.928 100.475 79.9813V69.0365H95.4238V60.29H100.475V49.5323H110.204V60.29H116.472V69.0365H110.204V78.2039V78.1572Z" fill="black"/>
<path id="Vector_11" d="M130.363 91.6277C134.237 91.6277 137.378 88.4866 137.378 84.6118C137.378 80.737 134.237 77.5959 130.363 77.5959C126.488 77.5959 123.347 80.737 123.347 84.6118C123.347 88.4866 126.488 91.6277 130.363 91.6277Z" fill="#0247FF"/>
</g>
<defs>
<clipPath id="clip0_120_19587">
<rect width="163.517" height="100" fill="white" transform="translate(0.241211)"/>
</clipPath>
</defs>
</svg>
