<svg width="195" height="65" viewBox="0 0 195 65" fill="none" xmlns="http://www.w3.org/2000/svg">
<path d="M16.3252 31.2925H6.99652V16.4763H0.41156V8.24513H22.9102V16.4763H16.3252V31.2925ZM23.8597 31.2925V13.4582H31.405V31.2925H23.8597ZM31.6794 14.7478C33.1336 13.4582 34.7524 12.9095 36.673 12.9095C40.5965 12.9095 42.1056 14.8575 42.1056 19.5493V23.1436L34.5603 23.6923V20.6742C34.5603 20.1255 34.3682 19.9883 33.8744 19.9883C33.4902 19.9883 32.9141 20.2627 32.2281 20.784L31.6794 14.7478ZM44.3027 14.7478C47.2659 13.568 51.7931 12.9095 54.8386 12.9095C60.134 12.9095 62.6857 14.4185 62.6857 18.9457V31.2925H55.1404V24.8721H54.4545C52.4241 24.8721 50.9974 25.0368 50.9974 25.9971C50.9974 26.8202 52.1772 26.9848 53.9058 26.9848H54.1801L54.8661 31.1553C53.796 31.5669 51.8205 31.8412 49.9822 31.8412C45.1532 31.8412 42.7936 29.8932 42.7936 26.683C42.7936 23.0613 46.2782 20.345 52.6985 20.345H55.1404V20.2901C55.1404 19.028 55.0032 18.8634 53.4942 18.8634C50.8328 18.8634 47.1836 19.6042 44.8514 20.2901L44.3027 14.7478ZM68.8655 31.2925L62.9665 13.4582H71.0879L73.3378 24.8447L75.5602 13.4582H83.6817L77.7826 31.2925H68.8655ZM90.9451 23.857C90.9451 24.927 92.2072 25.5581 94.1003 25.5581C96.213 25.5581 98.0788 25.3111 101.783 24.4057L103.155 29.4267C100.74 31.073 97.6672 31.8412 93.6888 31.8412C86.9392 31.8412 82.9882 28.3292 82.9882 22.3479C82.9882 16.6684 87.241 12.9095 93.6888 12.9095C100.329 12.9095 103.841 16.202 103.841 22.4028V23.857H90.9451ZM91.0274 20.5096H96.6246C96.6246 19.4944 95.335 18.8085 93.826 18.8085C92.3169 18.8085 91.0274 19.4944 91.0274 20.5096ZM104.805 31.2925V8.24513H112.35V31.2925H104.805ZM122.788 8.24513V18.589H125.45C128.056 18.589 129.373 18.0677 129.373 16.833C129.373 15.5983 128.056 15.1045 125.45 15.1045H123.063L123.886 8.24513H127.261C135.602 8.24513 138.153 11.8394 138.153 16.9702C138.153 22.1284 135.602 25.7227 127.261 25.7227H122.788V31.2925H113.46V8.24513H122.788ZM149.126 31.8412C142.816 31.8412 138.618 28.2195 138.426 22.7595H146.135C146.3 24.2411 147.425 25.2563 149.126 25.2563C150.964 25.2563 152.144 24.049 152.144 22.3479C152.144 20.6468 150.964 19.4944 149.126 19.4944C147.425 19.4944 146.163 20.5919 146.135 22.4851L138.426 21.9364C138.645 16.5038 142.843 12.9095 149.126 12.9095C155.574 12.9095 159.827 16.6958 159.827 22.3754C159.827 28.0549 155.574 31.8412 149.126 31.8412ZM160.644 31.2925V13.4582H168.19V31.2925H160.644ZM168.464 14.7478C169.918 13.4582 171.537 12.9095 173.458 12.9095C177.381 12.9095 178.89 14.8575 178.89 19.5493V23.1436L171.345 23.6923V20.6742C171.345 20.1255 171.153 19.9883 170.659 19.9883C170.275 19.9883 169.699 20.2627 169.013 20.784L168.464 14.7478ZM179.99 13.4582H182.898V8.19026H190.443V13.4582H194.12V19.6316H190.443V23.2808C190.443 24.5703 190.718 24.8447 192.145 24.8447H194.669L194.394 31.2925H191.075C184.901 31.2925 182.898 29.8109 182.898 24.3783V19.6316H179.99V13.4582Z" fill="#356EFF"/>
<path d="M54.3107 55.4435L63.755 45.0879H70.6933V55.4435H71.7081V60.6213H70.6933V62.4854H63.755V60.6213H54.7249L54.3107 55.4435ZM60.4826 55.4435H63.755V51.8398L60.4826 55.4435ZM84.2177 55.5264C82.9336 56.3548 81.3181 56.7276 79.5991 56.7276C75.1876 56.7276 72.5366 54.5115 72.5366 50.9906C72.5366 46.9105 75.7882 44.6737 81.691 44.6737C87.9665 44.6737 90.8453 46.9105 90.8453 51.4048V53.6209C90.8453 60.145 88.0079 62.8996 81.2767 62.8996C78.3979 62.8996 75.5604 62.5061 73.3857 61.8019L74.0899 56.8105C76.3889 57.4318 78.75 57.8253 80.4069 57.8253C82.6851 57.8253 84.4248 56.8933 84.4248 55.6921V51.1977C84.4248 49.9136 83.4514 49.5408 81.5874 49.5408C79.7441 49.5408 78.75 50.0586 78.75 50.9906C78.75 51.9226 79.6612 52.2747 80.9661 52.2747C82.0223 52.2747 82.8508 51.964 83.5964 51.5291L84.2177 55.5264ZM93.5342 62.4854V51.6119L91.8773 52.3368L91.6702 46.6619L93.9485 45.0879H100.576V62.4854H93.5342ZM111.547 62.8996C105.396 62.8996 101.399 59.4408 101.192 54.1801H108.461C108.606 55.6299 109.704 56.7898 111.547 56.7898C113.515 56.7898 114.654 55.4228 114.654 53.7659C114.654 52.109 113.536 50.7835 111.547 50.7835C109.683 50.7835 108.482 51.964 108.461 53.973L101.192 53.3517C101.42 48.1117 105.417 44.6737 111.547 44.6737C117.844 44.6737 121.903 48.2981 121.903 53.7866C121.903 59.2751 117.844 62.8996 111.547 62.8996ZM123.654 45.0879H138.773V49.6444H129.246V51.032H130.965C136.992 51.032 140.016 52.8132 140.016 56.769C140.016 60.7663 136.992 62.8996 130.965 62.8996C128.376 62.8996 125.145 62.5268 122.411 61.5326L123.447 56.5205C126.367 57.1418 129.018 57.4111 131.006 57.4111C132.518 57.4111 133.077 57.1211 133.077 56.5619C133.077 55.8992 132.27 55.5885 129.805 55.5885H123.654V45.0879Z" fill="#356EFF"/>
</svg>
