<svg width="80" height="112" viewBox="0 0 80 112" fill="none" xmlns="http://www.w3.org/2000/svg">
<path d="M19.924 4.136V16.484H18.328V10.058H17.18V16.148H15.584V4.318H17.18V8.686H18.328V4.136H19.924ZM14.646 11.612L14.856 12.942C13.6333 13.2313 12.1727 13.376 10.474 13.376H9.424V5.382H14.142V6.782H11.034V12.004C12.546 11.9947 13.75 11.864 14.646 11.612ZM31.7624 6.264H22.6764V4.864H31.7624V6.264ZM31.8744 11.122H22.5784V9.75H24.5244L24.1184 7.146L25.8404 6.978L26.1064 9.75H28.3184L28.5984 6.978L30.3204 7.146L29.9004 9.75H31.8744V11.122ZM32.9944 13.754V15.14H21.4584V13.754H24.3844V11.724H26.0224V13.754H28.4304V11.724H30.0684V13.754H32.9944ZM42.9148 4.136H44.5948V16.484H42.9148V4.136ZM34.2208 9.148C34.2208 7.748 34.5288 6.69333 35.1448 5.984C35.7702 5.26533 36.6008 4.906 37.6368 4.906C38.6635 4.906 39.4848 5.26533 40.1008 5.984C40.7168 6.69333 41.0248 7.748 41.0248 9.148C41.0248 10.5387 40.7168 11.5933 40.1008 12.312C39.4848 13.0307 38.6635 13.39 37.6368 13.39C36.6102 13.39 35.7842 13.0307 35.1588 12.312C34.5335 11.5933 34.2208 10.5387 34.2208 9.148ZM39.2468 9.932V8.364C39.2468 7.692 39.1022 7.18333 38.8128 6.838C38.5235 6.48333 38.1315 6.306 37.6368 6.306C37.1422 6.306 36.7455 6.48333 36.4468 6.838C36.1482 7.19267 35.9988 7.70133 35.9988 8.364V9.932C35.9988 10.5947 36.1482 11.1033 36.4468 11.458C36.7455 11.8127 37.1422 11.99 37.6368 11.99C38.1315 11.99 38.5235 11.8173 38.8128 11.472C39.1022 11.1173 39.2468 10.604 39.2468 9.932ZM55.3973 4.136H57.0773V16.484H55.3973V4.136ZM47.0253 5.102H53.1713V13.096H47.0253V5.102ZM51.5193 11.738V6.46H48.6773V11.738H51.5193ZM69.5597 4.136V16.484H67.8797V4.136H69.5597ZM63.9877 9.526C64.1557 9.526 64.3097 9.596 64.4497 9.736L66.7877 12.438L65.5277 13.516L63.1057 10.604C63.0404 10.5387 62.9797 10.506 62.9237 10.506C62.8677 10.506 62.8164 10.534 62.7697 10.59C62.499 11.066 62.163 11.556 61.7617 12.06C61.3604 12.5547 60.8657 13.11 60.2777 13.726L59.0037 12.69C60.0957 11.6353 60.8704 10.674 61.3277 9.806C61.7944 8.92867 62.0277 7.972 62.0277 6.936V6.6H59.5077V5.214H66.2137V6.6H63.7077V7.006C63.7077 8.05133 63.5164 9.01267 63.1337 9.89L63.2037 9.932L63.5397 9.68C63.689 9.57733 63.8384 9.526 63.9877 9.526Z" fill="black"/>
<rect x="1.2" y="33.2" width="77.6" height="77.6" stroke="#356EFF" stroke-width="2.4"/>
<path d="M55 77V79C55 81.8003 55 83.2004 54.455 84.27C53.9757 85.2108 53.2108 85.9757 52.27 86.455C51.2004 87 49.8003 87 47 87H33C30.1997 87 28.7996 87 27.73 86.455C26.7892 85.9757 26.0243 85.2108 25.545 84.27C25 83.2004 25 81.8003 25 79V77M48.3333 65.3333L40 57M40 57L31.6667 65.3333M40 57V77" stroke="#356EFF" stroke-width="2.4" stroke-linecap="round" stroke-linejoin="round"/>
</svg>
